<svg width="958" height="238" viewBox="0 0 958 238" fill="none" xmlns="http://www.w3.org/2000/svg">
<path d="M957.25 103.625V183.625H920.875V100.75C920.875 93.4167 919.625 87.5 917.125 83C913.875 76.6667 907.708 73.5 898.625 73.5C889.208 73.5 882.042 76.6667 877.125 83C872.292 89.25 869.875 98.2083 869.875 109.875V183.625H834.375V0H869.875V65.125C875.042 57.2083 881 51.7083 887.75 48.625C894.583 45.4583 901.75 43.875 909.25 43.875C917.667 43.875 925.292 45.3333 932.125 48.25C939.042 51.1667 944.708 55.625 949.125 61.625C952.875 66.7083 955.167 71.9583 956 77.375C956.833 82.7083 957.25 91.4583 957.25 103.625Z" fill="black"/>
<path d="M809.5 96.25H773C772.333 91.1667 770.625 86.5833 767.875 82.5C763.875 77 757.667 74.25 749.25 74.25C737.25 74.25 729.042 80.2083 724.625 92.125C722.292 98.4583 721.125 106.875 721.125 117.375C721.125 127.375 722.292 135.417 724.625 141.5C728.875 152.833 736.875 158.5 748.625 158.5C756.958 158.5 762.875 156.25 766.375 151.75C769.875 147.25 772 141.417 772.75 134.25H809.125C808.292 145.083 804.375 155.333 797.375 165C786.208 180.583 769.667 188.375 747.75 188.375C725.833 188.375 709.708 181.875 699.375 168.875C689.042 155.875 683.875 139 683.875 118.25C683.875 94.8333 689.583 76.625 701 63.625C712.417 50.625 728.167 44.125 748.25 44.125C765.333 44.125 779.292 47.9583 790.125 55.625C801.042 63.2917 807.5 76.8333 809.5 96.25Z" fill="black"/>
<path d="M619.75 146.375H657.625V183.625H619.75V146.375Z" fill="#F2000C"/>
<path d="M577.5 64.625C589 79.0417 594.75 96.0833 594.75 115.75C594.75 135.75 589 152.875 577.5 167.125C566 181.292 548.542 188.375 525.125 188.375C501.708 188.375 484.25 181.292 472.75 167.125C461.25 152.875 455.5 135.75 455.5 115.75C455.5 96.0833 461.25 79.0417 472.75 64.625C484.25 50.2083 501.708 43 525.125 43C548.542 43 566 50.2083 577.5 64.625ZM525 73.125C514.583 73.125 506.542 76.8333 500.875 84.25C495.292 91.5833 492.5 102.083 492.5 115.75C492.5 129.417 495.292 139.958 500.875 147.375C506.542 154.792 514.583 158.5 525 158.5C535.417 158.5 543.417 154.792 549 147.375C554.583 139.958 557.375 129.417 557.375 115.75C557.375 102.083 554.583 91.5833 549 84.25C543.417 76.8333 535.417 73.125 525 73.125Z" fill="black"/>
<path d="M421.5 62C432.5 73.75 438 91 438 113.75C438 137.75 432.583 156.042 421.75 168.625C411 181.208 397.125 187.5 380.125 187.5C369.292 187.5 360.292 184.792 353.125 179.375C349.208 176.375 345.375 172 341.625 166.25V237.25H306.375V47.375H340.5V67.5C344.333 61.5833 348.417 56.9167 352.75 53.5C360.667 47.4167 370.083 44.375 381 44.375C396.917 44.375 410.417 50.25 421.5 62ZM401.25 115.5C401.25 105 398.833 95.7083 394 87.625C389.25 79.5417 381.5 75.5 370.75 75.5C357.833 75.5 348.958 81.625 344.125 93.875C341.625 100.375 340.375 108.625 340.375 118.625C340.375 134.458 344.583 145.583 353 152C358 155.75 363.917 157.625 370.75 157.625C380.667 157.625 388.208 153.792 393.375 146.125C398.625 138.458 401.25 128.25 401.25 115.5Z" fill="black"/>
<path d="M258.75 53.625C269.417 60.4583 275.542 72.2083 277.125 88.875H241.5C241 84.2917 239.708 80.6667 237.625 78C233.708 73.1667 227.042 70.75 217.625 70.75C209.875 70.75 204.333 71.9583 201 74.375C197.75 76.7917 196.125 79.625 196.125 82.875C196.125 86.9583 197.875 89.9167 201.375 91.75C204.875 93.6667 217.25 96.9583 238.5 101.625C252.667 104.958 263.292 110 270.375 116.75C277.375 123.583 280.875 132.125 280.875 142.375C280.875 155.875 275.833 166.917 265.75 175.5C255.75 184 240.25 188.25 219.25 188.25C197.833 188.25 182 183.75 171.75 174.75C161.583 165.667 156.5 154.125 156.5 140.125H192.625C193.375 146.458 195 150.958 197.5 153.625C201.917 158.375 210.083 160.75 222 160.75C229 160.75 234.542 159.708 238.625 157.625C242.792 155.542 244.875 152.417 244.875 148.25C244.875 144.25 243.208 141.208 239.875 139.125C236.542 137.042 224.167 133.458 202.75 128.375C187.333 124.542 176.458 119.75 170.125 114C163.792 108.333 160.625 100.167 160.625 89.5C160.625 76.9167 165.542 66.125 175.375 57.125C185.292 48.0417 199.208 43.5 217.125 43.5C234.125 43.5 248 46.875 258.75 53.625Z" fill="black"/>
<path d="M122 64.625C133.5 79.0417 139.25 96.0833 139.25 115.75C139.25 135.75 133.5 152.875 122 167.125C110.5 181.292 93.0417 188.375 69.625 188.375C46.2083 188.375 28.75 181.292 17.25 167.125C5.75 152.875 0 135.75 0 115.75C0 96.0833 5.75 79.0417 17.25 64.625C28.75 50.2083 46.2083 43 69.625 43C93.0417 43 110.5 50.2083 122 64.625ZM69.5 73.125C59.0833 73.125 51.0417 76.8333 45.375 84.25C39.7917 91.5833 37 102.083 37 115.75C37 129.417 39.7917 139.958 45.375 147.375C51.0417 154.792 59.0833 158.5 69.5 158.5C79.9167 158.5 87.9167 154.792 93.5 147.375C99.0833 139.958 101.875 129.417 101.875 115.75C101.875 102.083 99.0833 91.5833 93.5 84.25C87.9167 76.8333 79.9167 73.125 69.5 73.125Z" fill="black"/>
</svg>
