<svg width="958" height="238" viewBox="0 0 958 238" fill="none" xmlns="http://www.w3.org/2000/svg">
<path d="M957.25 104.125V184.125H920.875V101.25C920.875 93.9167 919.625 88 917.125 83.5C913.875 77.1667 907.708 74 898.625 74C889.208 74 882.042 77.1667 877.125 83.5C872.292 89.75 869.875 98.7083 869.875 110.375V184.125H834.375V0.5H869.875V65.625C875.042 57.7083 881 52.2083 887.75 49.125C894.583 45.9583 901.75 44.375 909.25 44.375C917.667 44.375 925.292 45.8333 932.125 48.75C939.042 51.6667 944.708 56.125 949.125 62.125C952.875 67.2083 955.167 72.4583 956 77.875C956.833 83.2083 957.25 91.9583 957.25 104.125Z" fill="white"/>
<path d="M809.5 96.75H773C772.333 91.6667 770.625 87.0833 767.875 83C763.875 77.5 757.667 74.75 749.25 74.75C737.25 74.75 729.042 80.7083 724.625 92.625C722.292 98.9583 721.125 107.375 721.125 117.875C721.125 127.875 722.292 135.917 724.625 142C728.875 153.333 736.875 159 748.625 159C756.958 159 762.875 156.75 766.375 152.25C769.875 147.75 772 141.917 772.75 134.75H809.125C808.292 145.583 804.375 155.833 797.375 165.5C786.208 181.083 769.667 188.875 747.75 188.875C725.833 188.875 709.708 182.375 699.375 169.375C689.042 156.375 683.875 139.5 683.875 118.75C683.875 95.3333 689.583 77.125 701 64.125C712.417 51.125 728.167 44.625 748.25 44.625C765.333 44.625 779.292 48.4583 790.125 56.125C801.042 63.7917 807.5 77.3333 809.5 96.75Z" fill="white"/>
<path d="M619.75 146.875H657.625V184.125H619.75V146.875Z" fill="white"/>
<path d="M577.5 65.125C589 79.5417 594.75 96.5833 594.75 116.25C594.75 136.25 589 153.375 577.5 167.625C566 181.792 548.542 188.875 525.125 188.875C501.708 188.875 484.25 181.792 472.75 167.625C461.25 153.375 455.5 136.25 455.5 116.25C455.5 96.5833 461.25 79.5417 472.75 65.125C484.25 50.7083 501.708 43.5 525.125 43.5C548.542 43.5 566 50.7083 577.5 65.125ZM525 73.625C514.583 73.625 506.542 77.3333 500.875 84.75C495.292 92.0833 492.5 102.583 492.5 116.25C492.5 129.917 495.292 140.458 500.875 147.875C506.542 155.292 514.583 159 525 159C535.417 159 543.417 155.292 549 147.875C554.583 140.458 557.375 129.917 557.375 116.25C557.375 102.583 554.583 92.0833 549 84.75C543.417 77.3333 535.417 73.625 525 73.625Z" fill="white"/>
<path d="M421.5 62.5C432.5 74.25 438 91.5 438 114.25C438 138.25 432.583 156.542 421.75 169.125C411 181.708 397.125 188 380.125 188C369.292 188 360.292 185.292 353.125 179.875C349.208 176.875 345.375 172.5 341.625 166.75V237.75H306.375V47.875H340.5V68C344.333 62.0833 348.417 57.4167 352.75 54C360.667 47.9167 370.083 44.875 381 44.875C396.917 44.875 410.417 50.75 421.5 62.5ZM401.25 116C401.25 105.5 398.833 96.2083 394 88.125C389.25 80.0417 381.5 76 370.75 76C357.833 76 348.958 82.125 344.125 94.375C341.625 100.875 340.375 109.125 340.375 119.125C340.375 134.958 344.583 146.083 353 152.5C358 156.25 363.917 158.125 370.75 158.125C380.667 158.125 388.208 154.292 393.375 146.625C398.625 138.958 401.25 128.75 401.25 116Z" fill="white"/>
<path d="M258.75 54.125C269.417 60.9583 275.542 72.7083 277.125 89.375H241.5C241 84.7917 239.708 81.1667 237.625 78.5C233.708 73.6667 227.042 71.25 217.625 71.25C209.875 71.25 204.333 72.4583 201 74.875C197.75 77.2917 196.125 80.125 196.125 83.375C196.125 87.4583 197.875 90.4167 201.375 92.25C204.875 94.1667 217.25 97.4583 238.5 102.125C252.667 105.458 263.292 110.5 270.375 117.25C277.375 124.083 280.875 132.625 280.875 142.875C280.875 156.375 275.833 167.417 265.75 176C255.75 184.5 240.25 188.75 219.25 188.75C197.833 188.75 182 184.25 171.75 175.25C161.583 166.167 156.5 154.625 156.5 140.625H192.625C193.375 146.958 195 151.458 197.5 154.125C201.917 158.875 210.083 161.25 222 161.25C229 161.25 234.542 160.208 238.625 158.125C242.792 156.042 244.875 152.917 244.875 148.75C244.875 144.75 243.208 141.708 239.875 139.625C236.542 137.542 224.167 133.958 202.75 128.875C187.333 125.042 176.458 120.25 170.125 114.5C163.792 108.833 160.625 100.667 160.625 90C160.625 77.4167 165.542 66.625 175.375 57.625C185.292 48.5417 199.208 44 217.125 44C234.125 44 248 47.375 258.75 54.125Z" fill="white"/>
<path d="M122 65.125C133.5 79.5417 139.25 96.5833 139.25 116.25C139.25 136.25 133.5 153.375 122 167.625C110.5 181.792 93.0417 188.875 69.625 188.875C46.2083 188.875 28.75 181.792 17.25 167.625C5.75 153.375 0 136.25 0 116.25C0 96.5833 5.75 79.5417 17.25 65.125C28.75 50.7083 46.2083 43.5 69.625 43.5C93.0417 43.5 110.5 50.7083 122 65.125ZM69.5 73.625C59.0833 73.625 51.0417 77.3333 45.375 84.75C39.7917 92.0833 37 102.583 37 116.25C37 129.917 39.7917 140.458 45.375 147.875C51.0417 155.292 59.0833 159 69.5 159C79.9167 159 87.9167 155.292 93.5 147.875C99.0833 140.458 101.875 129.917 101.875 116.25C101.875 102.583 99.0833 92.0833 93.5 84.75C87.9167 77.3333 79.9167 73.625 69.5 73.625Z" fill="white"/>
</svg>
