<svg width="958" height="238" viewBox="0 0 958 238" fill="none" xmlns="http://www.w3.org/2000/svg">
<path d="M957.25 103.875V183.875H920.875V101C920.875 93.6667 919.625 87.75 917.125 83.25C913.875 76.9167 907.708 73.75 898.625 73.75C889.208 73.75 882.042 76.9167 877.125 83.25C872.292 89.5 869.875 98.4583 869.875 110.125V183.875H834.375V0.25H869.875V65.375C875.042 57.4583 881 51.9583 887.75 48.875C894.583 45.7083 901.75 44.125 909.25 44.125C917.667 44.125 925.292 45.5833 932.125 48.5C939.042 51.4167 944.708 55.875 949.125 61.875C952.875 66.9583 955.167 72.2083 956 77.625C956.833 82.9583 957.25 91.7083 957.25 103.875Z" fill="black"/>
<path d="M809.5 96.5H773C772.333 91.4167 770.625 86.8333 767.875 82.75C763.875 77.25 757.667 74.5 749.25 74.5C737.25 74.5 729.042 80.4583 724.625 92.375C722.292 98.7083 721.125 107.125 721.125 117.625C721.125 127.625 722.292 135.667 724.625 141.75C728.875 153.083 736.875 158.75 748.625 158.75C756.958 158.75 762.875 156.5 766.375 152C769.875 147.5 772 141.667 772.75 134.5H809.125C808.292 145.333 804.375 155.583 797.375 165.25C786.208 180.833 769.667 188.625 747.75 188.625C725.833 188.625 709.708 182.125 699.375 169.125C689.042 156.125 683.875 139.25 683.875 118.5C683.875 95.0833 689.583 76.875 701 63.875C712.417 50.875 728.167 44.375 748.25 44.375C765.333 44.375 779.292 48.2083 790.125 55.875C801.042 63.5417 807.5 77.0833 809.5 96.5Z" fill="black"/>
<path d="M619.75 146.625H657.625V183.875H619.75V146.625Z" fill="black"/>
<path d="M577.5 64.875C589 79.2917 594.75 96.3333 594.75 116C594.75 136 589 153.125 577.5 167.375C566 181.542 548.542 188.625 525.125 188.625C501.708 188.625 484.25 181.542 472.75 167.375C461.25 153.125 455.5 136 455.5 116C455.5 96.3333 461.25 79.2917 472.75 64.875C484.25 50.4583 501.708 43.25 525.125 43.25C548.542 43.25 566 50.4583 577.5 64.875ZM525 73.375C514.583 73.375 506.542 77.0833 500.875 84.5C495.292 91.8333 492.5 102.333 492.5 116C492.5 129.667 495.292 140.208 500.875 147.625C506.542 155.042 514.583 158.75 525 158.75C535.417 158.75 543.417 155.042 549 147.625C554.583 140.208 557.375 129.667 557.375 116C557.375 102.333 554.583 91.8333 549 84.5C543.417 77.0833 535.417 73.375 525 73.375Z" fill="black"/>
<path d="M421.5 62.25C432.5 74 438 91.25 438 114C438 138 432.583 156.292 421.75 168.875C411 181.458 397.125 187.75 380.125 187.75C369.292 187.75 360.292 185.042 353.125 179.625C349.208 176.625 345.375 172.25 341.625 166.5V237.5H306.375V47.625H340.5V67.75C344.333 61.8333 348.417 57.1667 352.75 53.75C360.667 47.6667 370.083 44.625 381 44.625C396.917 44.625 410.417 50.5 421.5 62.25ZM401.25 115.75C401.25 105.25 398.833 95.9583 394 87.875C389.25 79.7917 381.5 75.75 370.75 75.75C357.833 75.75 348.958 81.875 344.125 94.125C341.625 100.625 340.375 108.875 340.375 118.875C340.375 134.708 344.583 145.833 353 152.25C358 156 363.917 157.875 370.75 157.875C380.667 157.875 388.208 154.042 393.375 146.375C398.625 138.708 401.25 128.5 401.25 115.75Z" fill="black"/>
<path d="M258.75 53.875C269.417 60.7083 275.542 72.4583 277.125 89.125H241.5C241 84.5417 239.708 80.9167 237.625 78.25C233.708 73.4167 227.042 71 217.625 71C209.875 71 204.333 72.2083 201 74.625C197.75 77.0417 196.125 79.875 196.125 83.125C196.125 87.2083 197.875 90.1667 201.375 92C204.875 93.9167 217.25 97.2083 238.5 101.875C252.667 105.208 263.292 110.25 270.375 117C277.375 123.833 280.875 132.375 280.875 142.625C280.875 156.125 275.833 167.167 265.75 175.75C255.75 184.25 240.25 188.5 219.25 188.5C197.833 188.5 182 184 171.75 175C161.583 165.917 156.5 154.375 156.5 140.375H192.625C193.375 146.708 195 151.208 197.5 153.875C201.917 158.625 210.083 161 222 161C229 161 234.542 159.958 238.625 157.875C242.792 155.792 244.875 152.667 244.875 148.5C244.875 144.5 243.208 141.458 239.875 139.375C236.542 137.292 224.167 133.708 202.75 128.625C187.333 124.792 176.458 120 170.125 114.25C163.792 108.583 160.625 100.417 160.625 89.75C160.625 77.1667 165.542 66.375 175.375 57.375C185.292 48.2917 199.208 43.75 217.125 43.75C234.125 43.75 248 47.125 258.75 53.875Z" fill="black"/>
<path d="M122 64.875C133.5 79.2917 139.25 96.3333 139.25 116C139.25 136 133.5 153.125 122 167.375C110.5 181.542 93.0417 188.625 69.625 188.625C46.2083 188.625 28.75 181.542 17.25 167.375C5.75 153.125 0 136 0 116C0 96.3333 5.75 79.2917 17.25 64.875C28.75 50.4583 46.2083 43.25 69.625 43.25C93.0417 43.25 110.5 50.4583 122 64.875ZM69.5 73.375C59.0833 73.375 51.0417 77.0833 45.375 84.5C39.7917 91.8333 37 102.333 37 116C37 129.667 39.7917 140.208 45.375 147.625C51.0417 155.042 59.0833 158.75 69.5 158.75C79.9167 158.75 87.9167 155.042 93.5 147.625C99.0833 140.208 101.875 129.667 101.875 116C101.875 102.333 99.0833 91.8333 93.5 84.5C87.9167 77.0833 79.9167 73.375 69.5 73.375Z" fill="black"/>
</svg>
