<svg width="500" height="500" viewBox="0 0 500 500" fill="none" xmlns="http://www.w3.org/2000/svg">
<g clip-path="url(#clip0_11_25)">
<rect width="500" height="500" fill="white"/>
<path d="M201.188 370.75C209.812 381.562 214.125 394.344 214.125 409.094C214.125 424.094 209.812 436.938 201.188 447.625C192.562 458.25 179.469 463.562 161.906 463.562C144.344 463.562 131.25 458.25 122.625 447.625C114 436.938 109.688 424.094 109.688 409.094C109.688 394.344 114 381.562 122.625 370.75C131.25 359.938 144.344 354.531 161.906 354.531C179.469 354.531 192.562 359.938 201.188 370.75ZM161.812 377.125C154 377.125 147.969 379.906 143.719 385.469C139.531 390.969 137.438 398.844 137.438 409.094C137.438 419.344 139.531 427.25 143.719 432.812C147.969 438.375 154 441.156 161.812 441.156C169.625 441.156 175.625 438.375 179.812 432.812C184 427.25 186.094 419.344 186.094 409.094C186.094 398.844 184 390.969 179.812 385.469C175.625 379.906 169.625 377.125 161.812 377.125ZM303.75 362.5C311.75 367.625 316.344 376.438 317.531 388.938H290.812C290.438 385.5 289.469 382.781 287.906 380.781C284.969 377.156 279.969 375.344 272.906 375.344C267.094 375.344 262.938 376.25 260.438 378.062C258 379.875 256.781 382 256.781 384.438C256.781 387.5 258.094 389.719 260.719 391.094C263.344 392.531 272.625 395 288.562 398.5C299.188 401 307.156 404.781 312.469 409.844C317.719 414.969 320.344 421.375 320.344 429.062C320.344 439.188 316.562 447.469 309 453.906C301.5 460.281 289.875 463.469 274.125 463.469C258.062 463.469 246.188 460.094 238.5 453.344C230.875 446.531 227.062 437.875 227.062 427.375H254.156C254.719 432.125 255.938 435.5 257.812 437.5C261.125 441.062 267.25 442.844 276.188 442.844C281.438 442.844 285.594 442.062 288.656 440.5C291.781 438.938 293.344 436.594 293.344 433.469C293.344 430.469 292.094 428.188 289.594 426.625C287.094 425.062 277.812 422.375 261.75 418.562C250.188 415.688 242.031 412.094 237.281 407.781C232.531 403.531 230.156 397.406 230.156 389.406C230.156 379.969 233.844 371.875 241.219 365.125C248.656 358.312 259.094 354.906 272.531 354.906C285.281 354.906 295.688 357.438 303.75 362.5ZM425.812 368.781C434.062 377.594 438.188 390.531 438.188 407.594C438.188 425.594 434.125 439.312 426 448.75C417.938 458.188 407.531 462.906 394.781 462.906C386.656 462.906 379.906 460.875 374.531 456.812C371.594 454.562 368.719 451.281 365.906 446.969V500.219H339.469V357.812H365.062V372.906C367.938 368.469 371 364.969 374.25 362.406C380.188 357.844 387.25 355.562 395.438 355.562C407.375 355.562 417.5 359.969 425.812 368.781ZM410.625 408.906C410.625 401.031 408.812 394.062 405.188 388C401.625 381.938 395.812 378.906 387.75 378.906C378.062 378.906 371.406 383.5 367.781 392.688C365.906 397.562 364.969 403.75 364.969 411.25C364.969 423.125 368.125 431.469 374.438 436.281C378.188 439.094 382.625 440.5 387.75 440.5C395.188 440.5 400.844 437.625 404.719 431.875C408.656 426.125 410.625 418.469 410.625 408.906ZM542.812 370.75C551.438 381.562 555.75 394.344 555.75 409.094C555.75 424.094 551.438 436.938 542.812 447.625C534.188 458.25 521.094 463.562 503.531 463.562C485.969 463.562 472.875 458.25 464.25 447.625C455.625 436.938 451.312 424.094 451.312 409.094C451.312 394.344 455.625 381.562 464.25 370.75C472.875 359.938 485.969 354.531 503.531 354.531C521.094 354.531 534.188 359.938 542.812 370.75ZM503.438 377.125C495.625 377.125 489.594 379.906 485.344 385.469C481.156 390.969 479.062 398.844 479.062 409.094C479.062 419.344 481.156 427.25 485.344 432.812C489.594 438.375 495.625 441.156 503.438 441.156C511.25 441.156 517.25 438.375 521.438 432.812C525.625 427.25 527.719 419.344 527.719 409.094C527.719 398.844 525.625 390.969 521.438 385.469C517.25 379.906 511.25 377.125 503.438 377.125Z" fill="black"/>
</g>
<defs>
<clipPath id="clip0_11_25">
<rect width="500" height="500" fill="white"/>
</clipPath>
</defs>
</svg>
